<svg xmlns="http://www.w3.org/2000/svg" width="500" height="500" viewBox="0 0 500 500">
  <defs>
    <style>
      .cls-1 {
        fill: #79a9d1;
      }

      .cls-1, .cls-2 {
        fill-rule: evenodd;
      }

      .cls-2 {
        fill: #cc3f0c;
      }
    </style>
  </defs>
  <path id="s" class="cls-1" d="M389.8,175.8q-21,0-31.9-8.7T347,142.4q0-15,7.7-23.9t22.9-10.7l25.8-3.6q6-.6,9.1-3t3.1-7.4a10.729,10.729,0,0,0-4.2-8.9q-4.2-3.3-12.2-3.3H390q-7.4,0-11.8,3.1a10.194,10.194,0,0,0-4.6,8.3H348.8a27.684,27.684,0,0,1,11.6-22.4q11.2-8.4,29.6-8.4h9.2q19.6,0,30,8.3t10.4,23.9q0,13.4-7.1,21.8t-20.3,10.2L384.8,130q-7,1-10.4,3.9t-3.4,8.9a11.2,11.2,0,0,0,4.9,9.8q4.9,3.4,13.9,3.4h8.8q8.4,0,13.1-3.4t4.7-9.8H441q0,15.2-11.4,24.1t-31,8.9h-8.8Z"/>
  <path id="a" class="cls-1" d="M240.8,170a23.058,23.058,0,0,1-10-16.6V174H206.4V99.4q0-17.8,11.6-27.6T250.6,62q19.8,0,31.5,9.2a31.405,31.405,0,0,1,12.5,24h-24a12.354,12.354,0,0,0-5.8-9.6q-5.2-3.4-14-3.4-19.4,0-19.4,16.6v7.8h26.8q19.2,0,30.2,9.5t11,25.5q0,15.4-9.7,24.9T263.2,176Q249.4,176,240.8,170Zm28.9-18.9a15.1,15.1,0,0,0,5.1-11.9,15.628,15.628,0,0,0-4.8-11.8q-4.8-4.6-13-4.6H231.4v13q0,9,6.4,14.4t17.4,5.4Q264.6,155.6,269.7,151.1Z"/>
  <path id="m" class="cls-2" d="M137.6,174V92q0-11.6-9.6-11.6a7.832,7.832,0,0,0-6.7,3.1Q119,86.6,119,92v82H99V92q0-11.6-9-11.6a8.605,8.605,0,0,0-7.1,3.1q-2.5,3.1-2.5,8.5v82h-22V90.2q0-12.4,6.6-20.3A20.74,20.74,0,0,1,81.6,62a18.307,18.307,0,0,1,12.9,4.7q5.1,4.7,5.9,12.7a23.551,23.551,0,0,1,7-12.7A18.142,18.142,0,0,1,120,62a17.083,17.083,0,0,1,12.6,5,19.8,19.8,0,0,1,5.6,13h0.6V64h20.8V174h-22Z"/>
  <path id="s-2" data-name="s" class="cls-1" d="M389.8,305.8q-21,0-31.9-8.7T347,272.4q0-15,7.7-23.9t22.9-10.7l25.8-3.6q6-.6,9.1-3t3.1-7.4a10.73,10.73,0,0,0-4.2-8.9q-4.2-3.3-12.2-3.3H390q-7.4,0-11.8,3.1a10.194,10.194,0,0,0-4.6,8.3H348.8a27.685,27.685,0,0,1,11.6-22.4q11.2-8.4,29.6-8.4h9.2q19.6,0,30,8.3t10.4,23.9q0,13.4-7.1,21.8t-20.3,10.2L384.8,260q-7,1-10.4,3.9t-3.4,8.9a11.2,11.2,0,0,0,4.9,9.8q4.9,3.4,13.9,3.4h8.8q8.4,0,13.1-3.4t4.7-9.8H441q0,15.2-11.4,24.1t-31,8.9h-8.8Z"/>
  <path id="a-2" data-name="a" class="cls-2" d="M240.8,300a23.058,23.058,0,0,1-10-16.6V304H206.4V229.4q0-17.8,11.6-27.6t32.6-9.8q19.8,0,31.5,9.2a31.4,31.4,0,0,1,12.5,24h-24a12.355,12.355,0,0,0-5.8-9.6q-5.2-3.4-14-3.4-19.4,0-19.4,16.6v7.8h26.8q19.2,0,30.2,9.5t11,25.5q0,15.4-9.7,24.9T263.2,306Q249.4,306,240.8,300Zm28.9-18.9a15.1,15.1,0,0,0,5.1-11.9,15.628,15.628,0,0,0-4.8-11.8q-4.8-4.6-13-4.6H231.4v13q0,9,6.4,14.4t17.4,5.4Q264.6,285.6,269.7,281.1Z"/>
  <path id="m-2" data-name="m" class="cls-1" d="M137.6,304V222q0-11.6-9.6-11.6a7.831,7.831,0,0,0-6.7,3.1q-2.3,3.1-2.3,8.5v82H99V222q0-11.6-9-11.6a8.6,8.6,0,0,0-7.1,3.1q-2.5,3.1-2.5,8.5v82h-22V220.2q0-12.4,6.6-20.3A20.738,20.738,0,0,1,81.6,192a18.308,18.308,0,0,1,12.9,4.7q5.1,4.7,5.9,12.7a23.551,23.551,0,0,1,7-12.7A18.143,18.143,0,0,1,120,192a17.084,17.084,0,0,1,12.6,5,19.8,19.8,0,0,1,5.6,13h0.6V194h20.8V304h-22Z"/>
  <path id="s-3" data-name="s" class="cls-2" d="M389.8,436.8q-21,0-31.9-8.7T347,403.4q0-15,7.7-23.9t22.9-10.7l25.8-3.6q6-.6,9.1-3t3.1-7.4a10.73,10.73,0,0,0-4.2-8.9q-4.2-3.3-12.2-3.3H390q-7.4,0-11.8,3.1a10.194,10.194,0,0,0-4.6,8.3H348.8a27.685,27.685,0,0,1,11.6-22.4q11.2-8.4,29.6-8.4h9.2q19.6,0,30,8.3t10.4,23.9q0,13.4-7.1,21.8t-20.3,10.2L384.8,391q-7,1-10.4,3.9t-3.4,8.9a11.2,11.2,0,0,0,4.9,9.8q4.9,3.4,13.9,3.4h8.8q8.4,0,13.1-3.4t4.7-9.8H441q0,15.2-11.4,24.1t-31,8.9h-8.8Z"/>
  <path id="a-3" data-name="a" class="cls-1" d="M240.8,431a23.058,23.058,0,0,1-10-16.6V435H206.4V360.4q0-17.8,11.6-27.6t32.6-9.8q19.8,0,31.5,9.2a31.4,31.4,0,0,1,12.5,24h-24a12.355,12.355,0,0,0-5.8-9.6q-5.2-3.4-14-3.4-19.4,0-19.4,16.6v7.8h26.8q19.2,0,30.2,9.5t11,25.5q0,15.4-9.7,24.9T263.2,437Q249.4,437,240.8,431Zm28.9-18.9a15.1,15.1,0,0,0,5.1-11.9,15.628,15.628,0,0,0-4.8-11.8q-4.8-4.6-13-4.6H231.4v13q0,9,6.4,14.4t17.4,5.4Q264.6,416.6,269.7,412.1Z"/>
  <path id="m-3" data-name="m" class="cls-1" d="M137.6,435V353q0-11.6-9.6-11.6a7.831,7.831,0,0,0-6.7,3.1q-2.3,3.1-2.3,8.5v82H99V353q0-11.6-9-11.6a8.6,8.6,0,0,0-7.1,3.1q-2.5,3.1-2.5,8.5v82h-22V351.2q0-12.4,6.6-20.3A20.738,20.738,0,0,1,81.6,323a18.308,18.308,0,0,1,12.9,4.7q5.1,4.7,5.9,12.7a23.551,23.551,0,0,1,7-12.7A18.143,18.143,0,0,1,120,323a17.084,17.084,0,0,1,12.6,5,19.8,19.8,0,0,1,5.6,13h0.6V325h20.8V435h-22Z"/>
</svg>
